<?xml version="1.0" encoding="UTF-8" standalone="no"?>
<svg
   xmlns:dc="http://purl.org/dc/elements/1.1/"
   xmlns:cc="http://creativecommons.org/ns#"
   xmlns:rdf="http://www.w3.org/1999/02/22-rdf-syntax-ns#"
   xmlns:svg="http://www.w3.org/2000/svg"
   xmlns="http://www.w3.org/2000/svg"
   viewBox="0 0 1000 666.66669"
   height="666.66669"
   width="1000"
   xml:space="preserve"
   id="svg2"
   version="1.1"><metadata
     id="metadata8"><rdf:RDF><cc:Work
         rdf:about=""><dc:format>image/svg+xml</dc:format><dc:type
           rdf:resource="http://purl.org/dc/dcmitype/StillImage" /></cc:Work></rdf:RDF></metadata><defs
     id="defs6" /><g
     transform="matrix(1.3333333,0,0,-1.3333333,0,666.66667)"
     id="g10"><g
       transform="scale(0.1)"
       id="g12"><path
         id="path14"
         style="fill:#4249a6;fill-opacity:1;fill-rule:nonzero;stroke:none"
         d="M 0.00390625,0 H 7500.0039 V 5000 H 0.00390625 Z" /><path
         id="path16"
         style="fill:#4045a3;fill-opacity:1;fill-rule:nonzero;stroke:none"
         d="m 5534.65,3138.65 c -113.74,0 -227.69,41.6 -315,114.23 -123.26,102.53 -161.15,272.81 -303.19,359.21 -105.68,64.28 -229.39,90.89 -353.89,90.89 -55.11,0 -110.36,-5.21 -164.29,-14.67 -318.72,-55.93 -605.15,-221.83 -915.31,-307.94 58.36,110.47 84.89,236.46 84.89,362.96 -0.01,92.46 -14.16,185.32 -40.6,273.1 -19.98,66.2 -47.27,127.47 -78.82,185.59 89.58,34.59 179.03,69.53 265.87,110.19 230.51,107.91 590.89,329.19 509.75,631.3 -5.35,19.88 -12.43,38.65 -21.01,56.49 h 524.77 c 8.49,-54.71 22.61,-108.5 42.71,-160.43 91.49,-236.27 314.07,-423.42 566.24,-448.03 21.6,-2.11 43.12,-3.1 64.62,-3.1 86.97,0.01 173.14,16.1 258.87,38.85 -46.05,-70.37 -84.29,-146.45 -109.38,-234.79 -77.28,-272.15 8.98,-577.26 263.02,-724.75 41.43,-24.05 84.71,-42.63 129.36,-56.75 -55.81,-127.45 -152.17,-224.92 -307.43,-260.93 -33.23,-7.7 -67.2,-11.42 -101.18,-11.42 m 1502.36,181.39 c -32.41,29.49 -62.19,62.23 -88.8,98.08 29,-1.5 57.76,-4.03 86.18,-7.79 1,-30.09 1.83,-60.18 2.62,-90.29 m -3893.77,7.89 c -175.63,0 -355,54.14 -474.55,180.97 -23.23,24.65 -42.35,50.11 -57.79,76.17 117.04,169.74 234.56,331.89 434.51,441.44 116.89,64.04 240.91,112.89 365.39,160.97 31.62,-57.64 58.67,-117.87 78.16,-182.59 25.34,-84.08 38.9,-173.19 38.9,-261.56 0,-133.98 -31.13,-265.94 -98.86,-377.04 -72.78,-17.73 -147,-30.55 -223.4,-36.09 -20.65,-1.5 -41.49,-2.27 -62.36,-2.27" /><path
         id="path18"
         style="fill:#4045a3;fill-opacity:1;fill-rule:nonzero;stroke:none"
         d="m 3979.77,0 h -718.42 c 0.5,1.40234 1.01,2.78125 1.52,4.12109 -28.87,-0.74218 -57.8,-1.10937 -86.68,-1.10937 -20.36,0 -40.72,0.17969 -61.08,0.54687 C 3102.04,152.488 3059.14,298.75 2987.23,429.871 2811.7,749.891 2481.31,955.289 2118,985 c -373.68,30.55 -716.99,28.1 -939.78,397.02 -177.44,293.85 -117.58,639.11 -348.595,924.87 C 635.543,2546.97 320.664,2704.51 0.00390625,2736.13 V 3929.65 C 120.199,3961.67 244.66,3976.84 370.453,3976.85 c 115.297,0 231.664,-12.76 346.735,-36.99 -22.875,-139.3 -60.176,-279.76 -58.657,-414.3 4.235,-374.89 284.035,-660.24 626.199,-734.37 -74.05,-152.22 -129.8,-321.63 -95.47,-486.49 50,-240.03 284.32,-406.98 525.1,-453.22 46.57,-8.94 93.38,-14.27 140.36,-16.67 -15.62,-42.79 -27.97,-87.62 -36.03,-132.95 -29.19,-164.25 -1.99,-334.93 130.26,-437.97 78.53,-61.19 176.25,-83.31 275.37,-83.31 76,0 152.82,13.01 222.43,31.37 42.32,11.17 83.97,24.98 124.55,41.34 162.3,65.41 305.47,185.11 382.71,342.13 60.19,122.39 76.87,267.55 41.67,398.4 5.84,0.08 11.69,0.13 17.53,0.13 52.23,0 104.47,-3.26 156.54,-10.71 242.72,-34.69 486.08,-182.32 558.75,-416.49 64.2,-206.92 -14.28,-427.12 -49.63,-640.879 -35.34,-213.75 -0.74,-478.031 193.69,-573.609 63.14,-31.043 140.6,-42.672 184.11,-97.942 C 4119.1,175 4066.25,55.3984 3979.77,0 M 0.00390625,3971 v 299.88 C 166.523,4341.39 347.734,4380.31 527.133,4380.31 c 50.39,0 100.644,-3.07 150.375,-9.38 8.25,-15.47 15.746,-31.8 22.426,-49.05 42.609,-110.05 39.847,-225.59 23.328,-342.42 -116.914,24.47 -235.285,37.39 -352.809,37.39 -0.055,0 -0.144,0 -0.199,0 -125.332,0 -249.711,-14.73 -370.25009375,-45.85" /><path
         id="path20"
         style="fill:#4045a3;fill-opacity:1;fill-rule:nonzero;stroke:none"
         d="m 4719.2,592.809 c -18.57,87.531 -50.35,172.773 -86.94,254.703 -60.63,135.718 -141.69,244.588 -210.28,373.908 -129.26,243.67 -139.47,551.9 -11.94,798.39 160.1,309.46 460.43,450.6 768.88,450.6 344.72,0 699.58,-176.38 879.85,-491.21 2.09,-3.64 4.16,-7.3 6.2,-10.98 -100.82,-15.86 -198.41,-46.97 -287.14,-97.41 -243.37,-138.34 -386.43,-445.1 -328.82,-719.75 22.58,-107.65 57.29,-215.208 68.86,-323.63 -279.85,-9.321 -557.93,-91.5 -798.67,-234.621" /><path
         id="path22"
         style="fill:#5747a6;fill-opacity:1;fill-rule:nonzero;stroke:none"
         d="M 3115.11,3.55859 C 2890.73,7.60938 2666.79,33.9805 2447.62,82.2617 2246.73,126.5 2046.94,190.512 1875.97,304.898 1469.96,576.559 1282.07,1089.94 886.398,1376.46 c -91.832,66.51 -193.152,119.29 -298.32,161.68 -156.394,63.03 -321.922,103.36 -489.7928,119.31 -32.5938,3.1 -65.4063,5.32 -98.28129375,7.35 V 2736.13 C 320.664,2704.51 635.543,2546.97 829.625,2306.89 1060.64,2021.13 1000.78,1675.87 1178.22,1382.02 1401.01,1013.1 1744.32,1015.55 2118,985 2481.31,955.289 2811.7,749.891 2987.23,429.871 3059.14,298.75 3102.04,152.488 3115.11,3.55859" /><path
         id="path24"
         style="fill:#5f47a6;fill-opacity:1;fill-rule:nonzero;stroke:none"
         d="m 7500,2164.72 c -114.6,62.38 -214.13,146.31 -287.37,257.15 -85.82,129.88 -126.39,284.71 -147.5,438.95 -20.79,151.87 -24.05,305.65 -28.12,459.22 125.44,-114.14 290.22,-179.67 462.99,-188.49 v -966.83" /><path
         id="path26"
         style="fill:#5747a6;fill-opacity:1;fill-rule:nonzero;stroke:none"
         d="m 7500,3131.55 c -172.77,8.82 -337.55,74.35 -462.99,188.49 -0.79,30.11 -1.62,60.2 -2.62,90.29 109.17,-14.46 213.05,-47.15 304.32,-110.07 59.21,-40.81 109.68,-92.39 161.29,-142.68 v -26.03 M 5401.39,4388.44 c -21.5,0 -43.02,0.99 -64.62,3.1 -252.17,24.61 -474.75,211.76 -566.24,448.03 -20.1,51.93 -34.22,105.72 -42.71,160.43 h 1322.54 c -31.66,-104.56 -89.56,-203.46 -155.04,-280.57 -83.88,-98.76 -167.8,-189.35 -235.06,-292.14 -85.73,-22.75 -171.9,-38.84 -258.87,-38.85" /><path
         id="path28"
         style="fill:#5f47a6;fill-opacity:1;fill-rule:nonzero;stroke:none"
         d="m 1915.4,1833.29 c -20.24,0 -40.48,0.49 -60.68,1.52 26.03,71.27 61.13,136.86 100.6,189.57 19.81,26.47 41.47,51.55 64.72,75.04 129.74,131.12 339.65,225.39 534.65,225.39 160.69,0 311.26,-64.03 398.47,-224.21 18.45,-33.89 32.56,-69.76 42.52,-106.78 -185.42,-2.53 -371.12,-44.78 -553.4,-85.18 -173.18,-38.38 -350.75,-75.34 -526.88,-75.35" /><path
         id="path30"
         style="fill:#5747a6;fill-opacity:1;fill-rule:nonzero;stroke:none"
         d="m 2224.32,1180.58 c -99.12,0 -196.84,22.12 -275.37,83.31 -132.25,103.04 -159.45,273.72 -130.26,437.97 8.06,45.33 20.41,90.16 36.03,132.95 20.2,-1.03 40.44,-1.52 60.68,-1.52 176.13,0.01 353.7,36.97 526.88,75.35 182.28,40.4 367.98,82.65 553.4,85.18 35.2,-130.85 18.52,-276.01 -41.67,-398.4 -77.24,-157.02 -220.41,-276.72 -382.71,-342.13 -40.58,-16.36 -82.23,-30.17 -124.55,-41.34 -69.61,-18.36 -146.43,-31.37 -222.43,-31.37" /><path
         id="path32"
         style="fill:#5f47a6;fill-opacity:1;fill-rule:nonzero;stroke:none"
         d="m 1460.84,2772.28 c -59.79,0 -118.82,6.49 -176.11,18.91 3.78,7.76 7.6,15.48 11.46,23.15 79.6,158.07 177.49,310.19 217.91,482.49 22.35,95.24 24.56,192.53 9.85,287.61 229.94,-160.37 461.81,-329.72 720.83,-446.54 -173.03,-163.09 -375.19,-294.85 -605.33,-346.01 -59.62,-13.26 -119.49,-19.61 -178.61,-19.61 m 815,395.52 c -272.16,120.03 -516.41,302.08 -762.58,472.74 -59.97,265.11 -249.33,506.25 -496.17,629.13 -107.078,53.3 -221.902,86.34 -339.582,101.26 -85.942,161.11 -253.488,226.73 -427.016,226.73 -85.019,0 -171.4686,-15.75 -250.48809375,-43.72 v 326.8 C 99.3906,4895.5 202.617,4904.54 305.84,4904.54 c 273.148,0 546.148,-63.28 746.59,-250.84 208.86,-195.45 308.27,-494.38 548.75,-657.71 101.57,-68.99 224.71,-103.39 347.53,-103.39 187.21,0.01 373.69,79.91 482,238.99 73.1,107.38 105.85,238.13 114.1,367.78 11.3,177.33 -16.43,332.51 11.55,498.02 111.72,-14.28 210.79,-57.75 269.94,-181.33 97.75,-204.24 -32.54,-408.84 -127.04,-586.88 -106.11,-199.93 -208.77,-440.88 -88.36,-644.11 -66.2,-96.01 -132.25,-194.46 -212.95,-287.16 -38.85,-44.64 -79.56,-88.26 -122.11,-130.11" /><path
         id="path34"
         style="fill:#5747a6;fill-opacity:1;fill-rule:nonzero;stroke:none"
         d="m 2610.9,3585.07 c -120.41,203.23 -17.75,444.18 88.36,644.11 94.5,178.04 224.79,382.64 127.04,586.88 -59.15,123.58 -158.22,167.05 -269.94,181.33 0.15,0.87 0.3,1.74 0.45,2.61 h 429.91 c 1.76,-15.7 3.88,-31.34 6.34,-46.93 15.09,-95.43 47.56,-180.82 89.08,-260.38 62.32,-119.36 144.8,-225.86 221.08,-335.39 38.5,-55.23 75.41,-111.18 107.58,-169.82 -124.48,-48.08 -248.5,-96.93 -365.39,-160.97 -199.95,-109.55 -317.47,-271.7 -434.51,-441.44 m 837.54,616.95 c -55.6,102.42 -124.46,195.03 -189.96,287.52 -51.39,72.48 -100.84,144.89 -140.88,221.65 -40.05,76.78 -70.74,157.83 -85.03,248.13 v 0 c -2.14,13.51 -4,27.07 -5.59,40.68 h 1176.07 c 8.58,-17.84 15.66,-36.61 21.01,-56.49 81.14,-302.11 -279.24,-523.39 -509.75,-631.3 -86.84,-40.66 -176.29,-75.6 -265.87,-110.19" /><path
         id="path36"
         style="fill:#5747a6;fill-opacity:1;fill-rule:nonzero;stroke:none"
         d="m 1284.73,2791.19 c -342.164,74.13 -621.964,359.48 -626.199,734.37 -1.519,134.54 35.782,275 58.657,414.3 16.64,-3.5 33.257,-7.25 49.839,-11.23 196.325,-47.04 419.333,-117.45 585.213,-227.07 57.37,-37.85 114.49,-77.21 171.71,-117.12 14.71,-95.08 12.5,-192.37 -9.85,-287.61 -40.42,-172.3 -138.31,-324.42 -217.91,-482.49 -3.86,-7.67 -7.68,-15.39 -11.46,-23.15 m 228.53,849.35 c -46.19,32.03 -92.46,63.66 -138.98,94.4 -173,114.08 -399.475,184.88 -597.921,232.59 -17.66,4.24 -35.363,8.22 -53.097,11.93 16.519,116.83 19.281,232.37 -23.328,342.42 -6.68,17.25 -14.176,33.58 -22.426,49.05 117.68,-14.92 232.504,-47.96 339.582,-101.26 246.84,-122.88 436.2,-364.02 496.17,-629.13" /><path
         id="path38"
         style="fill:#5f47a6;fill-opacity:1;fill-rule:nonzero;stroke:none"
         d="m 6889.5,1279.51 c -67.82,-0.01 -135.63,5.94 -203.07,18.6 -111.29,20.89 -221.5,60.97 -307.98,134.07 -159.36,134.68 -211.83,353.47 -313.48,536.04 56.63,8.91 114.28,13.01 171.93,13.01 47.26,0 94.53,-2.75 141.25,-7.86 205.15,-22.44 402.95,-87.39 598.85,-152.34 177.05,-58.7 345.91,-110.98 523,-134.4 v -259.77 c -193.12,-90.83 -401.54,-147.34 -610.5,-147.35" /><path
         id="path40"
         style="fill:#5747a6;fill-opacity:1;fill-rule:nonzero;stroke:none"
         d="m 7500,213.781 c -235.57,2.348 -467.27,42.301 -681.43,140.129 -137.9,62.988 -264.29,148.16 -395.52,224.09 -132.51,76.66 -271.09,144.371 -417.8,188.09 -141.16,42.058 -287.49,62.219 -434.02,62.219 -17.77,0 -35.58,-0.289 -53.36,-0.879 -11.57,108.422 -46.28,215.98 -68.86,323.63 -57.61,274.65 85.45,581.41 328.82,719.75 88.73,50.44 186.32,81.55 287.14,97.41 101.65,-182.57 154.12,-401.36 313.48,-536.04 86.48,-73.1 196.69,-113.18 307.98,-134.07 67.44,-12.66 135.25,-18.61 203.07,-18.6 208.96,0.01 417.38,56.52 610.5,147.35 V 213.781" /><path
         id="path42"
         style="fill:#65cbc5;fill-opacity:1;fill-rule:nonzero;stroke:none"
         d="m -432.047,3722.04 c 237.688,176.51 516.6525,254.77 802.5,254.81 131.969,0 265.348,-16.72 396.574,-48.22 196.325,-47.04 419.333,-117.45 585.213,-227.07 311.06,-205.22 614.19,-454.63 971.38,-597.19 143.68,-57.26 308.08,-92.79 470.71,-92.81 116.27,0 231.68,18.2 337.67,60.06 105.96,41.83 202.47,107.5 279.97,201.78 108.19,131.61 155.89,300.31 155.89,469.93 -0.01,92.46 -14.16,185.32 -40.6,273.1 -55.2,182.87 -166.12,328.15 -268.78,473.11 -51.39,72.48 -100.84,144.89 -140.88,221.65 -40.05,76.78 -70.74,157.83 -85.03,248.13 v 0 c -8.41,53.13 -12.57,107.06 -12.57,161.07 -0.05,273.89 107.1,549.72 307.72,736.68 l -27.28,29.26 c -209.74,-195.7 -320.39,-481.8 -320.44,-765.94 0,-56.07 4.32,-112.08 13.06,-167.32 15.09,-95.43 47.56,-180.82 89.08,-260.38 62.32,-119.36 144.8,-225.86 221.08,-335.39 76.34,-109.52 146.42,-221.85 185.74,-352.41 25.34,-84.08 38.9,-173.19 38.9,-261.56 0,-162.31 -45.68,-321.65 -146.78,-444.52 -72.96,-88.69 -163.35,-150.29 -263.78,-189.99 -100.4,-39.67 -210.85,-57.27 -322.97,-57.26 -156.78,-0.03 -316.69,34.44 -455.89,89.97 -349.53,139.22 -650.84,386.4 -964.16,593.41 -173,114.08 -399.475,184.88 -597.921,232.59 -134.078,32.18 -270.554,49.32 -405.906,49.32 -293.0585,0.04 -581.086,-80.5 -826.348,-262.7 l 23.848,-32.11" /><path
         id="path44"
         style="fill:#c677c2;fill-opacity:1;fill-rule:nonzero;stroke:none"
         d="m 1948.71,3892.6 c -122.82,0 -245.96,34.4 -347.53,103.39 -240.48,163.33 -339.89,462.26 -548.75,657.71 -200.442,187.56 -473.442,250.84 -746.59,250.84 -103.223,0 -206.4494,-9.04 -305.83609375,-23.8 V 5000 H 2532.48 c 8.02,-0.73 15.98,-1.6 23.88,-2.61 -27.98,-165.51 -0.25,-320.69 -11.55,-498.02 -8.25,-129.65 -41,-260.4 -114.1,-367.78 -108.31,-159.08 -294.79,-238.98 -482,-238.99" /><path
         id="path46"
         style="fill:#c574c1;fill-opacity:1;fill-rule:nonzero;stroke:none"
         d="m 2556.36,4997.39 c -7.9,1.01 -15.86,1.88 -23.88,2.61 h 24.33 c -0.15,-0.87 -0.3,-1.74 -0.45,-2.61" /><path
         id="path48"
         style="fill:#d76cbd;fill-opacity:1;fill-rule:nonzero;stroke:none"
         d="m 4553.73,0 h -397.98 c 32.21,71.4805 71.73,137.051 122.51,203.52 120.1,157.25 271.26,288.41 440.94,389.289 16.31,-76.829 22.45,-155.438 12.74,-235.079 C 4715.46,222.551 4649.43,96.582 4553.73,0" /><path
         id="path50"
         style="fill:#e263b8;fill-opacity:1;fill-rule:nonzero;stroke:none"
         d="m 4817.65,0 h -263.92 c 95.7,96.582 161.73,222.551 178.21,357.73 9.71,79.641 3.57,158.25 -12.74,235.079 240.74,143.121 518.82,225.3 798.67,234.621 4.67,-43.711 5.57,-87.559 0.41,-131.598 C 5499.42,535.102 5399.96,392.582 5276.2,288.301 5135.62,169.852 4965.66,103.922 4817.65,0" /><path
         id="path52"
         style="fill:#c574c1;fill-opacity:1;fill-rule:nonzero;stroke:none"
         d="M 7500,0 H 4817.65 c 148.01,103.922 317.97,169.852 458.55,288.301 123.76,104.281 223.22,246.801 242.08,407.531 5.16,44.039 4.26,87.887 -0.41,131.598 17.78,0.59 35.59,0.879 53.36,0.879 146.53,0 292.86,-20.161 434.02,-62.219 C 6151.96,722.371 6290.54,654.66 6423.05,578 6554.28,502.07 6680.67,416.898 6818.57,353.91 7032.73,256.082 7264.43,216.129 7500,213.781 V 0" /><path
         id="path54"
         style="fill:#d76cbd;fill-opacity:1;fill-rule:nonzero;stroke:none"
         d="m 6233.41,3371.7 c -99.81,0 -197.93,10.14 -290.15,39.3 25.46,58.15 42.48,122.55 52.81,190.19 23.36,153.02 38.81,321.56 148.27,431.01 59.85,59.85 144.5,93.3 228.97,93.3 24.26,0 48.51,-2.76 72.15,-8.45 264.84,-63.69 335.67,-392 442.46,-601.63 17.63,-34.59 37.82,-67.05 60.29,-97.3 -23.24,1.21 -46.64,1.76 -70.11,1.76 -99.72,0 -200.92,-9.91 -298.49,-21.36 -113.46,-13.32 -230.95,-26.82 -346.2,-26.82" /><path
         id="path56"
         style="fill:#e263b8;fill-opacity:1;fill-rule:nonzero;stroke:none"
         d="m 7034.39,3410.33 c -28.42,3.76 -57.18,6.29 -86.18,7.79 -22.47,30.25 -42.66,62.71 -60.29,97.3 -106.79,209.63 -177.62,537.94 -442.46,601.63 -23.64,5.69 -47.89,8.45 -72.15,8.45 -84.47,0 -169.12,-33.45 -228.97,-93.3 -109.46,-109.45 -124.91,-277.99 -148.27,-431.01 -10.33,-67.64 -27.35,-132.04 -52.81,-190.19 -44.65,14.12 -87.93,32.7 -129.36,56.75 -254.04,147.49 -340.3,452.6 -263.02,724.75 25.09,88.34 63.33,164.42 109.38,234.79 60.25,15.98 120.31,35.26 180.28,54.53 145.29,46.68 290.09,93.37 436.33,93.37 37.42,0 74.95,-3.06 112.59,-9.96 325.54,-59.66 535.56,-391.02 601.59,-715.33 29.45,-144.66 38.44,-291.83 43.34,-439.57" /><path
         id="path58"
         style="fill:#c574c1;fill-opacity:1;fill-rule:nonzero;stroke:none"
         d="m 7500,3157.58 c -51.61,50.29 -102.08,101.87 -161.29,142.68 -91.27,62.92 -195.15,95.61 -304.32,110.07 -4.9,147.74 -13.89,294.91 -43.34,439.57 -66.03,324.31 -276.05,655.67 -601.59,715.33 -37.64,6.9 -75.17,9.96 -112.59,9.96 -146.24,0 -291.04,-46.69 -436.33,-93.37 -59.97,-19.27 -120.03,-38.55 -180.28,-54.53 67.26,102.79 151.18,193.38 235.06,292.14 65.48,77.11 123.38,176.01 155.04,280.57 H 7500 V 3157.58" /><path
         id="path60"
         style="fill:#e263b8;fill-opacity:1;fill-rule:nonzero;stroke:none"
         d="m 3261.35,0 h -145.93 c -0.1,1.17188 -0.21,2.39063 -0.31,3.55859 20.36,-0.36718 40.72,-0.54687 61.08,-0.54687 28.88,0 57.81,0.36719 86.68,1.10937 C 3262.36,2.78125 3261.85,1.40234 3261.35,0" /><path
         id="path62"
         style="fill:#c574c1;fill-opacity:1;fill-rule:nonzero;stroke:none"
         d="M 3115.42,0 H 0.00390625 V 1664.8 C 32.8789,1662.77 65.6914,1660.55 98.2852,1657.45 266.156,1641.5 431.684,1601.17 588.078,1538.14 693.246,1495.75 794.566,1442.97 886.398,1376.46 1282.07,1089.94 1469.96,576.559 1875.97,304.898 2046.94,190.512 2246.73,126.5 2447.62,82.2617 2666.79,33.9805 2890.73,7.60938 3115.11,3.55859 3115.21,2.39063 3115.32,1.17188 3115.42,0" /><path
         id="path64"
         style="fill:#65cbc5;fill-opacity:1;fill-rule:nonzero;stroke:none"
         d="m 6603.27,-594.941 c -9.27,58.781 -34.87,111.101 -67.24,158.703 -32.41,47.64 -71.68,90.828 -109.49,131.769 -95,102.789 -190,205.5901 -285,308.39088 C 6081.48,68.8789 6020.61,136.191 5972.1,208.219 c -48.55,72.062 -84.63,148.543 -96.39,232.32 -2.63,18.672 -3.9,37.32 -3.9,55.891 -0.02,98.652 35.94,195.41 95.51,278.152 59.53,82.719 142.59,151.129 235.17,192.848 101.24,45.66 211.35,65 323.5,65 113.55,0.01 229.08,-19.86 338.75,-52.071 218.26,-64.007 421.87,-173.75 633.31,-267.539 420.88,-186.539 885.66,-304.609 1344.48,-304.629 285.38,-0.011 568.47,45.731 836.86,149.27 l -14.4,37.32 c -263.24,-101.562 -541.33,-146.59 -822.46,-146.59 -451.92,-0.031 -911.64,116.5 -1328.27,301.2 -209.58,92.828 -414.64,203.64 -638.25,269.349 -112.68,33.07 -231.81,53.69 -350.02,53.69 -116.7,0.01 -232.61,-20.13 -339.94,-68.53 -99.28,-44.81 -187.45,-117.459 -251.19,-205.951 -63.68,-88.457 -103.03,-193.051 -103.05,-301.519 0,-20.391 1.4,-40.918 4.29,-61.461 12.9,-91.727 52.15,-173.867 102.83,-249.098 50.72,-75.262 113,-143.9022 173.23,-209.1015 95,-102.7895 190,-205.5975 285,-308.3905 37.65,-40.719 75.56,-82.609 105.79,-127.109 30.28,-44.52 52.77,-91.372 60.8,-142.43 l 39.52,6.219" /><path
         id="path66"
         style="fill:#65cbc5;fill-opacity:1;fill-rule:nonzero;stroke:none"
         d="m -960.535,3008.2 c 149.656,53.02 307.418,81.41 461.902,81.4 170.961,0.01 337.82,-34.73 485.6916,-108.97 147.8864,-74.27 276.9294,-187.86 372.9964,-346.8 45.679,-75.63 75.054,-152.64 93.105,-231.12 18.039,-78.46 24.707,-158.43 24.707,-239.64 0.141,-221.3 -50,-451.44 -50.133,-682.15 0,-43.61 1.813,-87.25 6.149,-130.85 20.023,-201.25 97.359,-395.66 213.558,-563.359 116.227,-167.699 271.364,-308.82 447.799,-403.281 189.45,-101.45 373.98,-142.059 554.13,-142.008 265.51,0.058 520.97,87.539 773.44,194.98 252.48,107.52 502.34,235.2 755.96,317.938 206.53,67.41 425.25,102.68 642.95,102.68 324.99,0 647.55,-78.579 924.43,-245.571 C 4960.24,482.352 5141.99,297 5270.03,81.9219 5398.1,-133.168 5472.41,-377.84 5472.4,-625.609 c 0,-39.02 -1.84,-78.121 -5.61,-117.211 l 39.82,-3.828 c 3.89,40.378 5.79,80.757 5.79,121.039 -0.01,255.808 -76.62,507.328 -208,727.988 C 5173,323.051 4986.8,513.012 4766.81,645.699 4482.85,816.93 4153.1,897.012 3821.72,897.02 3599.7,897.012 3376.9,861.082 3166.36,792.359 2908.65,708.211 2657.93,579.922 2407.15,473.199 2156.36,366.391 1905.89,281.359 1649.37,281.422 1475.2,281.461 1298.01,320.32 1114.12,418.699 943.695,509.898 793.012,646.832 680.316,809.492 567.598,972.141 492.918,1160.39 473.684,1354.03 c -4.18,42.08 -5.95,84.39 -5.95,126.89 -0.136,224.91 49.993,454.97 50.133,682.15 0,83.38 -6.84,166.44 -25.726,248.61 -18.875,82.15 -49.852,163.4 -97.852,242.83 C 294.418,2819.89 159.211,2939.02 5.00391,3016.38 -149.219,3093.79 -322.289,3129.6 -498.633,3129.6 c -159.383,0 -321.504,-29.23 -475.258,-83.69 l 13.356,-37.71" /><path
         id="path68"
         style="fill:#65cbc5;fill-opacity:1;fill-rule:nonzero;stroke:none"
         d="m 4624.26,5372.4 c -111.77,-57.64 -194.42,-141.16 -248.75,-237.7 -54.36,-96.56 -80.56,-206 -80.56,-316.07 0.01,-113.61 27.88,-227.99 81.87,-330.06 53.97,-102.05 134.19,-191.82 238.74,-255.56 186.39,-113.54 407.19,-149.59 621.05,-163.05 111.53,-6.98 226.67,-6.6 340.54,-10.59 113.87,-3.96 226.45,-12.29 332.71,-36.21 221.46,-49.74 422.21,-184.51 574.09,-352.89 75.36,-83.52 132.34,-168.12 181.73,-257.29 49.38,-89.15 91.13,-182.9 135.76,-284.24 82.25,-186.7 228.52,-345.25 410.71,-438.46 126.93,-64.91 263.32,-93.34 400,-93.33 209.31,0.05 419.39,66.37 600.69,170.46 l -19.92,34.69 c -176.1,-101.17 -379.99,-165.19 -580.77,-165.15 -131.19,0.02 -261.01,27.2 -381.79,88.95 -173.53,88.69 -313.81,240.59 -392.32,418.96 -44.66,101.41 -86.86,196.3 -137.37,287.5 -50.5,91.19 -109.35,178.65 -187.02,264.71 -156.47,173.35 -363.46,312.97 -595.01,365.12 -110.22,24.78 -225.21,33.14 -340.09,37.16 -114.89,4 -229.71,3.65 -339.44,10.53 -211.23,13.18 -425.45,49.09 -602.73,157.28 -98.02,59.77 -173.32,143.94 -224.21,240.12 -50.88,96.15 -77.23,204.29 -77.22,311.35 0,103.75 24.71,206.4 75.42,296.44 50.74,90.05 127.34,167.62 232.23,221.79 l -18.34,35.54" /><path
         id="path70"
         style="fill:#feffff;fill-opacity:1;fill-rule:nonzero;stroke:none"
         d="m 1020.16,5111.07 c 199.21,-9.04 390.29,-130.68 482.78,-307.34 37.34,-71.19 63.43,-149.24 92.93,-226.21 29.53,-76.94 62.51,-152.88 114.3,-219.4 106.99,-137.21 284.95,-221.64 459.07,-221.73 10.28,0 20.55,0.3 30.79,0.9 108.72,6.3 196.2,48.56 263.51,114.11 67.37,65.54 114.8,154 145.42,253.11 37.15,120.49 41.02,248.55 63.54,366.83 11.23,59.14 27.03,115.79 53.57,167.97 26.55,52.19 63.75,99.99 118.35,141.84 l -12.16,15.88 c -57,-43.64 -96.31,-94.11 -124.02,-148.65 -41.59,-81.86 -57.32,-172.59 -69.76,-264.64 -12.4,-92.08 -21.5,-185.59 -48.63,-273.33 -29.89,-96.79 -75.99,-182.2 -140.25,-244.67 -64.31,-62.46 -146.55,-102.34 -250.74,-108.49 -9.84,-0.57 -19.72,-0.86 -29.62,-0.86 -167.68,-0.09 -340.64,82.06 -443.29,214.02 -49.78,63.88 -82.1,137.84 -111.41,214.27 -29.32,76.41 -55.57,155.21 -93.88,228.33 -96.14,183.22 -292.89,308.47 -499.58,318.04 l -0.92,-19.98" /><path
         id="path72"
         style="fill:#feffff;fill-opacity:1;fill-rule:nonzero;stroke:none"
         d="m -151.781,595.609 c 67.4294,17.86 136.9412,26.383 206.6521,26.383 129.4839,0 259.6449,-29.402 378.1209,-82.703 182.309,-82.008 337.918,-218.5 456.488,-380.16 64.114,-87.297 119.37,-184.3478 200.81,-260 100.69,-93.34 237.78,-143.199 374.45,-143.219 68.55,0 137.03,12.559 200.76,38.61 l -7.57,18.519 c -61.16,-25.008 -127.08,-37.129 -193.19,-37.129 -131.84,-0.019 -264.28,48.281 -360.85,137.8908 -78.52,72.75 -133.355,168.5312 -198.285,257.1602 -120.32,164.027 -278.394,302.871 -464.41,386.57 -120.961,54.41 -253.808,84.449 -386.3239,84.461 -71.3359,0 -142.5742,-8.722 -211.7731,-27.051 l 5.121,-19.332" /><path
         id="path74"
         style="fill:#feffff;fill-opacity:1;fill-rule:nonzero;stroke:none"
         d="m 5763.93,-270.551 c 1.82,11.731 2.66,23.41 2.66,35 -0.12,79.403 -39.14,154.4729 -78.22,221.7229 -99.55,170.8591 -212.92,333.5701 -290.78,513.2891 -53.58,123.59 -89.59,258.508 -89.58,391.348 0,60.179 7.38,119.941 23.8,178.131 57.28,203.2 222.14,366.26 414.68,456.06 171.35,79.97 363.12,107.58 553.88,107.57 23.66,0 47.3,-0.42 70.89,-1.23 202.66,-6.85 404.51,-40.37 608.83,-48.58 27.65,-1.11 55.43,-1.72 83.26,-1.72 177.88,0.02 357.91,24.92 517.29,104.92 254.26,127.76 430.71,396.64 446.74,680.75 l -19.97,1.12 c -15.41,-276.58 -188.15,-539.79 -435.74,-664 -155.39,-78.03 -332.26,-102.8 -508.32,-102.79 -27.54,0 -55.05,0.61 -82.46,1.71 -202.65,8.09 -404.55,41.62 -608.96,48.58 -23.8,0.81 -47.66,1.24 -71.56,1.24 -192.65,-0.01 -387.35,-27.81 -562.34,-109.45 -196.78,-91.85 -366.02,-258.48 -425.46,-468.74 -16.98,-60.14 -24.56,-121.759 -24.56,-183.571 0.02,-136.469 36.86,-273.86 91.23,-399.309 78.97,-182.141 192.9,-345.449 291.85,-515.3906 38.87,-66.5977 75.62,-139.0704 75.5,-211.6604 0,-10.617 -0.77,-21.269 -2.43,-31.929 l 19.77,-3.071" /></g></g></svg>